<svg xmlns="http://www.w3.org/2000/svg" xmlns:xlink="http://www.w3.org/1999/xlink" width="1920" zoomAndPan="magnify" viewBox="0 0 1440 809.999993" height="1080" preserveAspectRatio="xMidYMid meet" version="1.0"><path fill="#000000" d="M 126.25 240.472656 C 199.445312 240.234375 272.664062 240.492188 345.882812 240.34375 C 345.820312 250.589844 345.925781 260.839844 345.839844 271.109375 C 272.621094 271.042969 199.425781 271.257812 126.226562 271 C 126.332031 260.816406 126.332031 250.65625 126.25 240.472656 Z M 126.25 240.472656 " fill-opacity="1" fill-rule="nonzero"/><path fill="#000000" d="M 72.683594 294.328125 C 82.777344 294.394531 92.867188 294.4375 102.980469 294.265625 C 103.195312 367.773438 103.109375 441.273438 103.023438 514.78125 C 92.890625 514.675781 82.753906 514.652344 72.621094 514.78125 C 72.683594 441.296875 72.558594 367.816406 72.683594 294.328125 Z M 72.683594 294.328125 " fill-opacity="1" fill-rule="nonzero"/><path fill="#000000" d="M 369.089844 294.878906 C 379.285156 294.726562 389.460938 294.179688 399.640625 294.328125 C 399.832031 367.792969 399.765625 441.273438 399.679688 514.738281 C 389.460938 514.71875 379.265625 514.675781 369.046875 514.695312 C 369.273438 441.421875 369.214844 368.152344 369.089844 294.878906 Z M 369.089844 294.878906 " fill-opacity="1" fill-rule="nonzero"/><path fill="#000000" d="M 1293.414062 327.480469 C 1312.8125 325.367188 1333.734375 326.589844 1350.6875 337.265625 C 1359.726562 342.863281 1365.722656 352.117188 1369.226562 362.007812 C 1360.359375 365.746094 1351.535156 369.636719 1342.816406 373.695312 C 1338.386719 363.488281 1329.746094 354.34375 1318.261719 352.863281 C 1307.171875 351.574219 1294.949219 351.050781 1284.898438 356.621094 C 1274.875 361.710938 1276.203125 378.554688 1286.359375 382.695312 C 1310.65625 392.203125 1340.886719 388.042969 1360.949219 407.355469 C 1374.164062 419.945312 1374.546875 441.644531 1365.785156 456.839844 C 1358.011719 470.636719 1342.6875 478.179688 1327.652344 481.070312 C 1315.828125 482.886719 1303.753906 482.820312 1291.914062 481.511719 C 1272.738281 479.140625 1254.308594 469.257812 1243.058594 453.371094 C 1250.46875 446.824219 1257.792969 440.164062 1264.65625 433.046875 C 1274.046875 446.945312 1289.90625 456.121094 1306.773438 456.433594 C 1317.164062 456.710938 1330.1875 456.539062 1336.585938 446.816406 C 1341.59375 440.164062 1339.835938 430.230469 1333.585938 425.054688 C 1327.460938 420.679688 1319.882812 419.347656 1312.640625 418.058594 C 1295.753906 414.976562 1277.929688 413.070312 1263.003906 403.839844 C 1244.976562 393.28125 1242.105469 367.097656 1252.65625 350.300781 C 1261.324219 336.351562 1277.726562 329.507812 1293.414062 327.480469 Z M 1293.414062 327.480469 " fill-opacity="1" fill-rule="nonzero"/><path fill="#000000" d="M 146.289062 330.121094 C 156.421875 329.96875 166.554688 330.140625 176.667969 329.992188 C 176.5625 379.664062 176.539062 429.332031 176.667969 479.007812 C 166.535156 478.816406 156.402344 478.941406 146.265625 478.835938 C 146.621094 429.277344 146.558594 379.6875 146.289062 330.121094 Z M 146.289062 330.121094 " fill-opacity="1" fill-rule="nonzero"/><path fill="#000000" d="M 220.894531 330.011719 C 231.15625 330.121094 241.394531 330.078125 251.65625 330.011719 C 251.53125 379.644531 251.488281 429.277344 251.679688 478.898438 C 241.417969 478.878906 231.15625 478.835938 220.894531 478.964844 C 220.980469 429.316406 220.980469 379.664062 220.894531 330.011719 Z M 220.894531 330.011719 " fill-opacity="1" fill-rule="nonzero"/><path fill="#000000" d="M 295.910156 329.992188 C 306.023438 330.121094 316.117188 330.078125 326.226562 330.011719 C 326.207031 379.6875 326.183594 429.332031 326.25 479.007812 C 316.09375 478.855469 305.960938 478.8125 295.828125 478.941406 C 296.039062 429.296875 295.871094 379.644531 295.910156 329.992188 Z M 295.910156 329.992188 " fill-opacity="1" fill-rule="nonzero"/><path fill="#000000" d="M 467.027344 330.097656 C 479.273438 329.949219 491.519531 330.355469 503.765625 329.925781 C 517.929688 367.304688 532.011719 404.746094 545.101562 442.5 C 559.988281 405.226562 573.035156 367.21875 587.878906 329.925781 C 599.824219 330.246094 611.820312 330.140625 623.789062 330.035156 C 623.683594 379.664062 623.597656 429.316406 623.832031 478.964844 C 614.246094 478.855469 604.679688 478.8125 595.117188 479.007812 C 596.089844 445.160156 595.371094 411.292969 595.601562 377.445312 C 582.550781 411.164062 570.285156 445.203125 557.46875 479.007812 C 549.339844 478.855469 541.234375 478.8125 533.105469 478.964844 C 520.546875 445.203125 506.972656 411.796875 495.484375 377.671875 C 494.476562 411.371094 495.230469 445.195312 495.152344 478.941406 C 485.738281 478.8125 476.34375 478.898438 466.949219 478.835938 C 467.261719 429.277344 467.089844 379.6875 467.027344 330.097656 Z M 467.027344 330.097656 " fill-opacity="1" fill-rule="nonzero"/><path fill="#000000" d="M 652.925781 330.140625 C 688.835938 330.054688 724.773438 330.183594 760.683594 330.097656 C 760.511719 338.972656 760.511719 347.867188 760.640625 356.765625 C 734.96875 356.847656 709.296875 356.722656 683.625 356.828125 C 683.6875 367.558594 683.753906 378.3125 683.605469 389.066406 C 707.484375 389.257812 731.378906 389.171875 755.257812 389.085938 C 755.449219 398.003906 755.363281 406.945312 755.386719 415.875 C 731.441406 415.8125 707.503906 415.703125 683.582031 415.894531 C 683.796875 428.042969 683.667969 440.171875 683.605469 452.320312 C 709.71875 452.554688 735.859375 452.53125 761.992188 452.320312 C 761.886719 461.195312 761.90625 470.089844 761.929688 478.984375 C 725.574219 478.6875 689.214844 479.050781 652.863281 478.792969 C 653.132812 429.253906 653.011719 379.6875 652.925781 330.140625 Z M 652.925781 330.140625 " fill-opacity="1" fill-rule="nonzero"/><path fill="#000000" d="M 790.027344 330.035156 C 810.355469 330.269531 830.6875 329.96875 851.042969 330.183594 C 865.753906 330.964844 881.484375 333.519531 893.097656 343.347656 C 906.929688 355.164062 909.019531 375.84375 904.078125 392.433594 C 901.183594 403.355469 892.175781 411.257812 882.503906 416.308594 C 893.207031 437.160156 903.84375 458.035156 914.402344 478.957031 C 903.046875 478.851562 891.691406 478.828125 880.347656 478.976562 C 870.71875 460.359375 862.300781 441.074219 851.929688 422.882812 C 841.457031 423.347656 830.988281 423.054688 820.511719 423.097656 C 820.492188 441.695312 820.300781 460.28125 820.640625 478.878906 C 810.398438 479.007812 800.160156 478.8125 789.941406 479.027344 C 790.132812 429.359375 789.984375 379.6875 790.027344 330.035156 Z M 820.535156 355.625 C 820.339844 369.523438 820.578125 383.410156 820.382812 397.316406 C 834.421875 396.53125 848.972656 399.171875 862.675781 395.351562 C 879.167969 391.082031 879.652344 362.878906 863.160156 358.316406 C 849.398438 354.273438 834.699219 356.152344 820.535156 355.625 Z M 820.535156 355.625 " fill-opacity="1" fill-rule="nonzero"/><path fill="#000000" d="M 925.546875 478.863281 C 945.503906 429.339844 964.773438 379.523438 984.730469 330 C 995.03125 330.191406 1005.359375 330.210938 1015.65625 329.976562 C 1035.546875 379.566406 1054.753906 429.402344 1074.816406 478.929688 C 1063.6875 478.886719 1052.585938 478.90625 1041.476562 478.84375 C 1037.382812 467.519531 1033.09375 456.234375 1028.976562 444.910156 C 1009.363281 444.867188 989.75 444.933594 970.136719 444.867188 C 965.976562 456.234375 961.902344 467.640625 957.597656 478.949219 C 946.917969 478.757812 936.214844 479.035156 925.546875 478.863281 Z M 979.34375 419.46875 C 992.835938 419.050781 1006.347656 419.050781 1019.835938 419.449219 C 1013.296875 400.832031 1006.390625 382.304688 999.109375 363.945312 C 993.210938 382.710938 985.46875 400.792969 979.34375 419.46875 Z M 979.34375 419.46875 " fill-opacity="1" fill-rule="nonzero"/><path fill="#000000" d="M 1144.359375 330.078125 C 1154.769531 330.097656 1165.214844 330.140625 1175.648438 330.078125 C 1195.367188 379.6875 1214.769531 429.417969 1234.679688 478.964844 C 1223.570312 478.835938 1212.472656 478.855469 1201.382812 478.898438 C 1197.4375 467.511719 1192.957031 456.3125 1188.988281 444.925781 C 1169.355469 444.839844 1149.71875 444.902344 1130.085938 444.945312 C 1125.65625 456.183594 1121.828125 467.65625 1117.484375 478.941406 C 1106.804688 478.8125 1096.121094 478.835938 1085.433594 479.007812 C 1105.238281 429.425781 1124.789062 379.75 1144.359375 330.078125 Z M 1139.058594 419.027344 C 1152.65625 419.574219 1166.273438 418.351562 1179.851562 419.511719 C 1173.222656 400.710938 1165.917969 382.136719 1159.101562 363.417969 C 1153.121094 382.199219 1145.902344 400.558594 1139.058594 419.027344 Z M 1139.058594 419.027344 " fill-opacity="1" fill-rule="nonzero"/><path fill="#000000" d="M 126.226562 538.144531 C 199.425781 537.890625 272.644531 538.125 345.863281 538.019531 C 345.96875 548.203125 345.757812 558.363281 345.925781 568.527344 C 272.6875 568.460938 199.46875 568.632812 126.226562 568.441406 C 126.355469 558.351562 126.332031 548.246094 126.226562 538.144531 Z M 126.226562 538.144531 " fill-opacity="1" fill-rule="nonzero"/></svg>